# xmcd
#
# Track frame offsets:
#	150
#	20294
#	38381
#	52314
#	71664
#	88954
#	113496
#	136426
#	152566
#	166121
#	191499
#
# Disc length: 2887 seconds
#
# Revision: 1
# Processed by: cddbd v1.5.1PL0 Copyright (c) Steve Scherf et al.
# Submitted via: audiograbber 1.83.01
#
DISCID=890b450b
DTITLE=Louisiana Red - No Turn On Red
DYEAR=2005
DGENRE=Delta Blues
TTITLE0=Red's hobo blues
TTITLE1=Freught train to ride
TTITLE2=I been down so long
TTITLE3=September 11 th blues
TTITLE4=I done woke up
TTITLE5=Cotton pickin blues
TTITLE6=Mary Dee Shuffle
TTITLE7=You got to move
TTITLE8=Rollin' Stone
TTITLE9=Red's nes dream
TTITLE10=Everybody laughs at me
EXTD=
EXTT0=
EXTT1=
EXTT2=
EXTT3=
EXTT4=
EXTT5=
EXTT6=
EXTT7=
EXTT8=
EXTT9=
EXTT10=
PLAYORDER=
